$MeshFormat
4.1 0 8
$EndMeshFormat
$PhysicalNames
3
1 2 "bc-base-disp"
1 3 "bc-top-disp"
2 1 "dogbone"
$EndPhysicalNames
$Entities
16 21 6 0
2 0 -0.0025 0 0 
3 0 0.0025 0 0 
8 0 -0.008 0 0 
10 0 0.008 0 0 
17 0.0005999999999999999 -0.0025 0 0 
20 0.0005999999999999999 0.0025 0 0 
21 -0.0005999999999999999 -0.0025 0 0 
22 -0.0005999999999999999 0.0025 0 0 
23 -0.001999999999999794 -0.0039 0 0 
24 -0.002 -0.008 0 0 
25 0.001999999999999751 -0.0039 0 0 
26 0.002 -0.008 0 0 
27 -0.001999999999999795 0.0039 0 0 
28 -0.002 0.008 0 0 
29 0.002 0.008 0 0 
30 0.002000000000000059 0.0039 0 0 
2 -1.000000000002168e-07 -0.0025001 -1.000000000002168e-07 1.000000000002168e-07 0.0025001 1.000000000002168e-07 0 2 2 -3 
9 -1e-07 -0.0080001 -1e-07 1e-07 -0.002499900000000001 1e-07 0 2 8 -2 
13 -1.000000000004337e-07 0.0024999 -1.000000000004337e-07 1.000000000004337e-07 0.008000100000000001 1.000000000004337e-07 0 2 3 -10 
25 0.0005999 -0.0025001 -1e-07 0.0006000999999999999 0.0025001 1e-07 0 2 20 -17 
26 -0.0006000999999999998 -0.0025001 -1e-07 -0.0005998999999999999 0.0025001 1e-07 0 2 21 -22 
27 -0.0006000999999999999 0.0024999 -1.000000000001084e-07 1.000000000001109e-07 0.0025001 1.000000000001084e-07 0 2 3 -22 
28 -0.0006001000000000002 -0.0025001 -1.000000000004337e-07 1.000000000004361e-07 -0.0024999 1.000000000004337e-07 0 2 21 -2 
29 -1.000000000000024e-07 0.0024999 -1e-07 0.0006000999999999998 0.0025001 1e-07 0 2 20 -3 
30 -1.000000000004361e-07 -0.0025001 -1.00000000000447e-07 0.0006001000000000004 -0.0024999 1.00000000000447e-07 0 2 2 -17 
31 -0.0020001 -0.0080001 -1e-07 -0.0019999 -0.0038999 1e-07 0 2 23 -24 
32 -0.002000099999999795 -0.0039001 -1e-07 -0.0005999000000000001 -0.002499900000000001 1e-07 0 2 23 -21 
33 -0.0020001 -0.0080001 -1e-07 1.000000000000566e-07 -0.007999900000000001 1e-07 1 2 2 24 -8 
34 0.0005999000000000001 -0.0039001 -1e-07 0.002000099999999751 -0.0024999 1e-07 0 2 17 -25 
35 0.0019999 -0.0080001 -1e-07 0.0020001 -0.0038999 1e-07 0 2 26 -25 
36 -1.000000000000566e-07 -0.0080001 -1e-07 0.0020001 -0.007999900000000001 1e-07 1 2 2 8 -26 
37 -0.002000099999999795 0.0024999 -1e-07 -0.0005999000000000001 0.0039001 1e-07 0 2 22 -27 
38 -0.0020001 0.0038999 -1e-07 -0.0019999 0.0080001 1e-07 0 2 28 -27 
39 -0.0020001 0.007999900000000001 -1e-07 1.000000000000566e-07 0.0080001 1e-07 1 3 2 10 -28 
40 -1.000000000000566e-07 0.007999900000000001 -1e-07 0.0020001 0.0080001 1e-07 1 3 2 29 -10 
41 0.0019999 0.0038999 -1e-07 0.0020001 0.0080001 1e-07 0 2 30 -29 
42 0.0005999000000000001 0.0024999 -1e-07 0.002000100000000059 0.0039001 1e-07 0 2 30 -20 
1 -0.0006001000000000002 -0.0025001 -1.000000000004337e-07 1.000000000004361e-07 0.0025001 1.000000000004337e-07 1 1 4 -26 28 2 27 
5 -1.000000000004361e-07 -0.0025001 -1.00000000000447e-07 0.0006001000000000004 0.0025001 1.00000000000447e-07 1 1 4 -2 30 -25 29 
9 -0.0020001 -0.008000100000000001 -1.000000000004337e-07 1.000000000004903e-07 -0.0024999 1.000000000004337e-07 1 1 5 31 33 9 -28 -32 
13 -1.000000000004903e-07 -0.008000100000000001 -1.00000000000447e-07 0.0020001 -0.0024999 1.00000000000447e-07 1 1 5 -9 36 35 -34 -30 
17 -0.0020001 0.0024999 -1.000000000004337e-07 1.000000000004903e-07 0.008000100000000001 1.000000000004337e-07 1 1 5 -27 13 39 38 -37 
21 -1.000000000004903e-07 0.0024999 -1.000000000004337e-07 0.002000100000000059 0.008000100000000001 1.000000000004337e-07 1 1 5 -29 -42 41 40 -13 
$EndEntities
$Nodes
43 1129 1 1129
0 2 0 1
1
0 -0.0025 0
0 3 0 1
2
0 0.0025 0
0 8 0 1
3
0 -0.008 0
0 10 0 1
4
0 0.008 0
0 17 0 1
5
0.0005999999999999999 -0.0025 0
0 20 0 1
6
0.0005999999999999999 0.0025 0
0 21 0 1
7
-0.0005999999999999999 -0.0025 0
0 22 0 1
8
-0.0005999999999999999 0.0025 0
0 23 0 1
9
-0.001999999999999794 -0.0039 0
0 24 0 1
10
-0.002 -0.008 0
0 25 0 1
11
0.001999999999999751 -0.0039 0
0 26 0 1
12
0.002 -0.008 0
0 27 0 1
13
-0.001999999999999795 0.0039 0
0 28 0 1
14
-0.002 0.008 0
0 29 0 1
15
0.002 0.008 0
0 30 0 1
16
0.002000000000000059 0.0039 0
1 2 0 19
17
18
19
20
21
22
23
24
25
26
27
28
29
30
31
32
33
34
35
0 -0.002 0
0 -0.0015 0
0 -0.001 0
0 -0.0005000000000000004 0
0 -4.336808689942018e-19 0
0 0.0005 0
0 0.001 0
0 0.0015 0
0 0.002 0
0 -0.00225 0
0 -0.00175 0
0 -0.00125 0
0 -0.0007500000000000004 0
0 -0.0002500000000000002 0
0 0.0002499999999999998 0
0 0.0007500000000000002 0
0 0.00125 0
0 0.00175 0
0 0.002250000000000001 0
1 9 0 21
36
37
38
39
40
41
42
43
44
45
46
47
48
49
50
51
52
53
54
55
56
0 -0.0075 0
0 -0.006999999999999998 0
0 -0.006499999999999996 0
0 -0.005999999999999995 0
0 -0.005499999999999994 0
0 -0.004999999999999992 0
0 -0.00449999999999999 0
0 -0.00399999999999999 0
0 -0.003499999999999993 0
0 -0.002999999999999997 0
0 -0.00775 0
0 -0.007249999999999999 0
0 -0.006749999999999997 0
0 -0.006249999999999996 0
0 -0.005749999999999995 0
0 -0.005249999999999993 0
0 -0.004749999999999991 0
0 -0.00424999999999999 0
0 -0.003749999999999991 0
0 -0.003249999999999994 0
0 -0.002749999999999998 0
1 13 0 21
57
58
59
60
61
62
63
64
65
66
67
68
69
70
71
72
73
74
75
76
77
0 0.003000000000000001 0
0 0.003500000000000002 0
0 0.004000000000000004 0
0 0.004500000000000005 0
0 0.005000000000000006 0
0 0.005500000000000008 0
0 0.00600000000000001 0
0 0.006500000000000011 0
0 0.007000000000000008 0
0 0.007500000000000003 0
0 0.002750000000000001 0
0 0.003250000000000002 0
0 0.003750000000000003 0
0 0.004250000000000005 0
0 0.004750000000000006 0
0 0.005250000000000007 0
0 0.005750000000000009 0
0 0.00625000000000001 0
0 0.006750000000000009 0
0 0.007250000000000006 0
0 0.007750000000000002 0
1 25 0 19
78
79
80
81
82
83
84
85
86
87
88
89
90
91
92
93
94
95
96
0.0005999999999999999 0.002 0
0.0005999999999999999 0.0015 0
0.0005999999999999999 0.001 0
0.0005999999999999999 0.0005000000000000004 0
0.0005999999999999999 4.336808689942018e-19 0
0.0005999999999999999 -0.0005 0
0.0005999999999999999 -0.001 0
0.0005999999999999999 -0.0015 0
0.0005999999999999999 -0.002 0
0.0005999999999999999 0.00225 0
0.0005999999999999999 0.00175 0
0.0005999999999999999 0.00125 0
0.0005999999999999999 0.0007500000000000004 0
0.0005999999999999999 0.0002500000000000002 0
0.0005999999999999999 -0.0002499999999999998 0
0.0005999999999999999 -0.0007500000000000002 0
0.0005999999999999999 -0.00125 0
0.0005999999999999999 -0.00175 0
0.0005999999999999999 -0.002250000000000001 0
1 26 0 19
97
98
99
100
101
102
103
104
105
106
107
108
109
110
111
112
113
114
115
-0.0005999999999999998 -0.002 0
-0.0005999999999999998 -0.0015 0
-0.0005999999999999998 -0.001 0
-0.0005999999999999998 -0.0005000000000000004 0
-0.0005999999999999998 -4.336808689942018e-19 0
-0.0005999999999999998 0.0005 0
-0.0005999999999999998 0.001 0
-0.0005999999999999998 0.0015 0
-0.0005999999999999998 0.002 0
-0.0005999999999999998 -0.00225 0
-0.0005999999999999998 -0.00175 0
-0.0005999999999999998 -0.00125 0
-0.0005999999999999998 -0.0007500000000000004 0
-0.0005999999999999998 -0.0002500000000000002 0
-0.0005999999999999998 0.0002499999999999998 0
-0.0005999999999999998 0.0007500000000000002 0
-0.0005999999999999998 0.00125 0
-0.0005999999999999998 0.00175 0
-0.0005999999999999998 0.002250000000000001 0
1 27 0 3
116
117
118
-0.0003 0.0025 0
-0.00015 0.0025 0
-0.0004499999999999999 0.0025 0
1 28 0 3
119
120
121
-0.0002999999999999997 -0.0025 0
-0.0004499999999999999 -0.0025 0
-0.00015 -0.0025 0
1 29 0 3
122
123
124
0.0002999999999999997 0.0025 0
0.0004499999999999999 0.0025 0
0.00015 0.0025 0
1 30 0 3
125
126
127
0.0003 -0.0025 0
0.00015 -0.0025 0
0.00045 -0.0025 0
1 31 0 17
128
129
130
131
132
133
134
135
136
137
138
139
140
141
142
143
144
-0.002 -0.004355555555555554 0
-0.002 -0.004811111111111108 0
-0.002 -0.005266666666666663 0
-0.002 -0.005722222222222217 0
-0.002 -0.006177777777777772 0
-0.002 -0.00663333333333333 0
-0.002 -0.007088888888888887 0
-0.002 -0.007544444444444444 0
-0.002 -0.004127777777777777 0
-0.002 -0.004583333333333332 0
-0.002 -0.005038888888888885 0
-0.002 -0.005494444444444439 0
-0.002 -0.005949999999999994 0
-0.002 -0.006405555555555551 0
-0.002 -0.006861111111111108 0
-0.002 -0.007316666666666665 0
-0.002 -0.007772222222222222 0
1 32 0 9
145
146
147
148
149
150
151
152
153
-0.001567376207874919 -0.003831479122813165 0
-0.00117710064679044 -0.003632623792124856 0
-0.0008673762078750271 -0.003322899353209398 0
-0.0006685208771867728 -0.002932623792124889 0
-0.001780991748943495 -0.003882763676833164 0
-0.001364413300364509 -0.003747409133863651 0
-0.001010050506338763 -0.003489949493661096 0
-0.000752590866136258 -0.003135586699635312 0
-0.0006172363231668043 -0.002719008251056304 0
1 33 0 7
154
155
156
157
158
159
160
-0.0015 -0.008 0
-0.001 -0.008 0
-0.0005 -0.008 0
-0.00175 -0.008 0
-0.00125 -0.008 0
-0.00075 -0.008 0
-0.00025 -0.008 0
1 34 0 9
161
162
163
164
165
166
167
168
169
0.0006685208771867693 -0.002932623792124878 0
0.0008673762078750136 -0.00332289935320938 0
0.001177100646790415 -0.003632623792124837 0
0.001567376207874883 -0.003831479122813153 0
0.0006172363231668034 -0.002719008251056298 0
0.0007525908661362502 -0.003135586699635297 0
0.001010050506338744 -0.003489949493661077 0
0.001364413300364478 -0.003747409133863636 0
0.001780991748943455 -0.003882763676833158 0
1 35 0 17
170
171
172
173
174
175
176
177
178
179
180
181
182
183
184
185
186
0.002 -0.007544444444444446 0
0.002 -0.007088888888888892 0
0.002 -0.006633333333333337 0
0.002 -0.006177777777777784 0
0.002 -0.005722222222222227 0
0.002 -0.00526666666666667 0
0.002 -0.004811111111111113 0
0.002 -0.004355555555555555 0
0.002 -0.007772222222222223 0
0.002 -0.007316666666666669 0
0.002 -0.006861111111111115 0
0.002 -0.00640555555555556 0
0.002 -0.005950000000000006 0
0.002 -0.005494444444444449 0
0.002 -0.005038888888888891 0
0.002 -0.004583333333333334 0
0.002 -0.004127777777777778 0
1 36 0 7
187
188
189
190
191
192
193
0.0004999999999999998 -0.008 0
0.0009999999999999998 -0.008 0
0.0015 -0.008 0
0.0002499999999999999 -0.008 0
0.0007499999999999998 -0.008 0
0.00125 -0.008 0
0.00175 -0.008 0
1 37 0 9
194
195
196
197
198
199
200
201
202
-0.0006685208771867726 0.002932623792124888 0
-0.000867376207875026 0.003322899353209396 0
-0.001177100646790438 0.003632623792124854 0
-0.001567376207874917 0.003831479122813165 0
-0.000617236323166804 0.002719008251056304 0
-0.0007525908661362576 0.003135586699635312 0
-0.001010050506338761 0.003489949493661095 0
-0.001364413300364507 0.00374740913386365 0
-0.001780991748943494 0.003882763676833164 0
1 38 0 17
203
204
205
206
207
208
209
210
211
212
213
214
215
216
217
218
219
-0.002 0.007544444444444446 0
-0.002 0.007088888888888892 0
-0.002 0.006633333333333337 0
-0.002 0.006177777777777784 0
-0.002 0.005722222222222227 0
-0.002 0.00526666666666667 0
-0.002 0.004811111111111113 0
-0.002 0.004355555555555555 0
-0.002 0.007772222222222223 0
-0.002 0.007316666666666669 0
-0.002 0.006861111111111115 0
-0.002 0.00640555555555556 0
-0.002 0.005950000000000006 0
-0.002 0.005494444444444449 0
-0.002 0.005038888888888891 0
-0.002 0.004583333333333334 0
-0.002 0.004127777777777778 0
1 39 0 7
220
221
222
223
224
225
226
-0.0004999999999999998 0.008 0
-0.0009999999999999998 0.008 0
-0.0015 0.008 0
-0.0002499999999999999 0.008 0
-0.0007499999999999998 0.008 0
-0.00125 0.008 0
-0.00175 0.008 0
1 40 0 7
227
228
229
230
231
232
233
0.0015 0.008 0
0.001 0.008 0
0.0005 0.008 0
0.00175 0.008 0
0.00125 0.008 0
0.00075 0.008 0
0.00025 0.008 0
1 41 0 17
234
235
236
237
238
239
240
241
242
243
244
245
246
247
248
249
250
0.002 0.004355555555555554 0
0.002 0.004811111111111108 0
0.002 0.005266666666666663 0
0.002 0.005722222222222217 0
0.002 0.006177777777777772 0
0.002 0.00663333333333333 0
0.002 0.007088888888888888 0
0.002 0.007544444444444444 0
0.002 0.004127777777777777 0
0.002 0.004583333333333332 0
0.002 0.005038888888888884 0
0.002 0.005494444444444439 0
0.002 0.005949999999999994 0
0.002 0.006405555555555551 0
0.002 0.006861111111111108 0
0.002 0.007316666666666666 0
0.002 0.007772222222222222 0
1 42 0 9
251
252
253
254
255
256
257
258
259
0.001567376207875117 0.003831479122813229 0
0.001177100646790564 0.003632623792124946 0
0.0008673762078750865 0.00332289935320948 0
0.0006685208771867886 0.002932623792124937 0
0.001780991748943728 0.003882763676833201 0
0.00136441330036467 0.003747409133863733 0
0.001010050506338853 0.003489949493661186 0
0.0007525908661362927 0.003135586699635381 0
0.0006172363231668082 0.002719008251056329 0
2 1 0 61
260
261
262
263
264
265
266
267
268
269
270
271
272
273
274
275
276
277
278
279
280
281
282
283
284
285
286
287
288
289
290
291
292
293
294
295
296
297
298
299
300
301
302
303
304
305
306
307
308
309
310
311
312
313
314
315
316
317
318
319
320
-0.0003 0.00175 0
-0.0002999999999999998 0.002194523809523809 0
-0.0002999999999999999 -0.0007500000000000002 0
-0.0003 -0.00175 0
-0.0002999999999999999 -0.002194523809523809 0
-0.0002999999999999999 0.0002499999999999998 0
-0.0002999999999999999 -0.00125 0
-0.0002999999999999999 -0.0002500000000000004 0
-0.0002999999999999999 0.00075 0
-0.0002999999999999999 0.00125 0
-0.00015 -0.002347261904761905 0
-0.0002999999999999998 -0.002347261904761905 0
-0.0004499999999999999 -0.002347261904761905 0
-0.0002999999999999999 0.002347261904761905 0
-0.00015 0.002347261904761905 0
-0.0004499999999999999 0.002347261904761905 0
-0.00015 -0.002097261904761905 0
-0.0004499999999999999 0.002097261904761905 0
-0.00015 0.002097261904761905 0
-0.0004499999999999999 -0.002097261904761905 0
-0.0002999999999999999 -0.001 0
-0.00015 -0.001125 0
-0.00015 -0.0008750000000000002 0
-0.00015 0.001875 0
-0.00015 0.001625 0
-0.0004499999999999999 -0.001375 0
-0.0004499999999999999 -0.001125 0
-0.0004499999999999999 0.001625 0
-0.0004499999999999999 0.001875 0
-0.00015 0.0003749999999999999 0
-0.00015 0.0001249999999999997 0
-0.0004499999999999999 -0.0008750000000000002 0
-0.0004499999999999999 0.0001249999999999997 0
-0.0004499999999999999 0.0003749999999999999 0
-0.0002999999999999999 0.0004999999999999999 0
-0.0004499999999999999 0.000625 0
-0.00015 -0.001625 0
-0.00015 -0.001875 0
-0.00015 0.000625 0
-0.00015 0.001125 0
-0.0002999999999999999 0.001 0
-0.00015 0.000875 0
-0.00015 -0.001375 0
-0.00015 -0.0006250000000000003 0
-0.00015 -0.0001250000000000004 0
-0.00015 -0.0003750000000000004 0
-0.0002999999999999999 -0.0005000000000000003 0
-0.0002999999999999999 -3.252606517456513e-19 0
-0.0002999999999999999 0.0015 0
-0.00015 0.001375 0
-0.0004499999999999999 -0.001875 0
-0.0004499999999999999 -0.001625 0
-0.0004499999999999999 -0.0006250000000000003 0
-0.0004499999999999999 -0.0003750000000000004 0
-0.0004499999999999999 -0.0001250000000000004 0
-0.0004499999999999999 0.001375 0
-0.0004499999999999999 0.001125 0
-0.0002999999999999999 -0.0015 0
-0.0004499999999999999 0.000875 0
-0.0002999999999999999 -0.001972261904761905 0
-0.0002999999999999999 0.001972261904761905 0
2 5 0 61
321
322
323
324
325
326
327
328
329
330
331
332
333
334
335
336
337
338
339
340
341
342
343
344
345
346
347
348
349
350
351
352
353
354
355
356
357
358
359
360
361
362
363
364
365
366
367
368
369
370
371
372
373
374
375
376
377
378
379
380
381
0.0003000000000000001 -0.00175 0
0.0003000000000000001 -0.00219452380952381 0
0.0003000000000000001 0.00175 0
0.0002999999999999999 0.00219452380952381 0
0.0003 -0.00125 0
0.0003000000000000001 0.00125 0
0.0002999999999999999 -0.0007500000000000002 0
0.0003000000000000001 0.0007500000000000002 0
0.0003000000000000001 -0.00025 0
0.0003000000000000001 0.0002500000000000003 0
0.00015 0.002347261904761905 0
0.0002999999999999998 0.002347261904761905 0
0.0004499999999999999 0.002347261904761905 0
0.0003000000000000001 -0.002347261904761905 0
0.0001500000000000001 -0.002347261904761905 0
0.0004500000000000001 -0.002347261904761905 0
0.00015 0.002097261904761905 0
0.0001500000000000001 -0.002097261904761905 0
0.0004500000000000001 -0.002097261904761905 0
0.0004499999999999999 0.002097261904761905 0
0.0003000000000000001 1.084202172485504e-19 0
0.0001500000000000001 0.0001249999999999999 0
0.0001500000000000001 -0.0001250000000000002 0
0.00015 -0.001375 0
0.00015 -0.001125 0
0.0001500000000000001 0.001625 0
0.0001500000000000001 0.001875 0
0.0004500000000000001 0.0001250000000000004 0
0.0004500000000000001 -0.0001249999999999998 0
0.0001500000000000001 0.0003750000000000001 0
0.0004500000000000001 0.001375 0
0.0004500000000000001 0.001125 0
0.0003000000000000001 0.001 0
0.0004500000000000001 0.0008750000000000002 0
0.0004500000000000001 -0.001625 0
0.0004500000000000001 -0.001875 0
0.0004500000000000001 -0.000375 0
0.0001500000000000001 0.001375 0
0.0003000000000000001 0.0015 0
0.0004499999999999999 -0.0008750000000000001 0
0.0002999999999999999 -0.001 0
0.00045 -0.001125 0
0.0001500000000000001 -0.001875 0
0.0001500000000000001 -0.001625 0
0.0003 -0.0005000000000000001 0
0.0001500000000000001 -0.0003750000000000002 0
0.00015 -0.0006250000000000003 0
0.0001500000000000001 0.0008750000000000001 0
0.0001500000000000001 0.001125 0
0.00015 -0.0008750000000000002 0
0.0001500000000000001 0.0006250000000000001 0
0.0003000000000000001 0.0005000000000000002 0
0.0004500000000000001 0.001875 0
0.0004500000000000001 0.001625 0
0.0004500000000000001 0.0006250000000000003 0
0.0004499999999999999 -0.0006250000000000001 0
0.0004500000000000001 0.0003750000000000003 0
0.00045 -0.001375 0
0.0003000000000000001 -0.0015 0
0.0003000000000000001 -0.001972261904761905 0
0.0003 0.001972261904761905 0
2 9 0 184
382
383
384
385
386
387
388
389
390
391
392
393
394
395
396
397
398
399
400
401
402
403
404
405
406
407
408
409
410
411
412
413
414
415
416
417
418
419
420
421
422
423
424
425
426
427
428
429
430
431
432
433
434
435
436
437
438
439
440
441
442
443
444
445
446
447
448
449
450
451
452
453
454
455
456
457
458
459
460
461
462
463
464
465
466
467
468
469
470
471
472
473
474
475
476
477
478
479
480
481
482
483
484
485
486
487
488
489
490
491
492
493
494
495
496
497
498
499
500
501
502
503
504
505
506
507
508
509
510
511
512
513
514
515
516
517
518
519
520
521
522
523
524
525
526
527
528
529
530
531
532
533
534
535
536
537
538
539
540
541
542
543
544
545
546
547
548
549
550
551
552
553
554
555
556
557
558
559
560
561
562
563
564
565
-0.001619347875178818 -0.006862206332761348 0
-0.001608586186755605 -0.005949999999999994 0
-0.001614532391685073 -0.005051572955502789 0
-0.001198840277083327 -0.004073706690783487 0
-0.0004345325920500408 -0.00624082384987803 0
-0.0004248499445568764 -0.005262990912633973 0
-0.0004219580797431692 -0.007246808194728368 0
-0.0008105326429089894 -0.003862455110618002 0
-0.0008291849927206171 -0.004322658368933508 0
-0.001242691863988819 -0.007526238416386534 0
-0.001228033101386964 -0.00449708729044523 0
-0.0008149379469777221 -0.004724130302690897 0
-0.0004284253655419339 -0.005748503402577654 0
-0.000825326079131504 -0.005521669700537059 0
-0.0008379440438849589 -0.005981091548338449 0
-0.0008490836354590348 -0.006463395483875561 0
-0.0004369965615085511 -0.006741482664674002 0
-0.0008930476579201433 -0.007041498603373279 0
-0.0004245616548967801 -0.003621264610758504 0
-0.001620404973415986 -0.006405738092497257 0
-0.001614203618311244 -0.005496558455546757 0
-0.0007479248490772097 -0.007576579038378331 0
-0.001632749365539267 -0.0072993437190805 0
-0.001589497605399134 -0.004247949939031178 0
-0.0004730643530439923 -0.004531980638016773 0
-0.0004309613679445543 -0.004114836776752916 0
-0.001221815846343919 -0.005305101829094684 0
-0.001224705770969395 -0.005738699885215786 0
-0.001232476922942889 -0.006195376390543396 0
-0.001247718091607936 -0.006677717275633624 0
-0.001327110970846997 -0.007081400869447057 0
-0.001623338718537583 -0.004644438868453222 0
-0.0003829998114296824 -0.002804032536523334 0
-0.0003905764252313771 -0.003196803382102686 0
-0.001214122181974638 -0.004894123133608128 0
-0.000366025403784439 -0.00763397459621556 0
-0.001675088245905617 -0.007674005315982295 0
-0.000782075086916568 -0.005142407555461949 0
-0.0003677948254635606 -0.004892288318159204 0
-0.00111007931438357 -0.007061449736410168 0
-0.001284901417417908 -0.007303819642916796 0
-0.001067869760954481 -0.007283868509879906 0
-0.0009953083565330146 -0.007551408727382433 0
-0.0008204862534986765 -0.007309038820875805 0
-0.0004277615114206671 -0.00386805069375571 0
-0.0002154806839722771 -0.004057418388376453 0
-0.00021228082744839 -0.003810632305379247 0
-0.00021228082744839 -0.003560632305379248 0
-0.0004075690400640786 -0.003409033996430595 0
-0.0006289763165532021 -0.003259851367656042 0
-0.0006459689313859035 -0.003472081981983951 0
-0.000529548651209075 -0.003064713587113787 0
-0.0009938166448497149 -0.003747539451371429 0
-0.0008389544253920082 -0.0035926772319137 0
-0.0006175471489028847 -0.003741859860688253 0
-0.001794748802699567 -0.00407397496951559 0
-0.001578436906637026 -0.004039714530922172 0
-0.001794748802699567 -0.004301752747293367 0
-0.0005849414644101894 -0.007411693616553349 0
-0.0006575028688316563 -0.007144153399050824 0
-0.0006207470054267718 -0.003988645943685459 0
-0.001048400863533485 -0.006570556379754592 0
-0.001070382874764039 -0.006859607939503452 0
-0.0008710656466895891 -0.00675244704362442 0
-0.0002154806839722771 -0.004307418388376453 0
-0.0004520128604942733 -0.004323408707384844 0
-0.0002365321765219961 -0.004515990319008381 0
-0.0006650221097143472 -0.006891490634023641 0
-0.0006430400984837929 -0.006602439074274782 0
-0.0001952882126156886 -0.003348401691051339 0
-0.0002184982807542755 -0.006870741332337 0
-0.0004294773206258601 -0.006994145429701185 0
-0.0002109790398715846 -0.007123404097364183 0
-0.0002184982807542755 -0.006620741332336999 0
-0.0005257603443082277 -0.002868328164324111 0
-0.0004914999057148411 -0.002652016268261667 0
-0.0006331847047134464 -0.005864797475458052 0
-0.0006362383179674999 -0.006110957699108239 0
-0.0004314789787959873 -0.005994663626227842 0
-0.000214212682770967 -0.005874251701288824 0
-0.0002172662960250204 -0.006120411924939013 0
-0.0008435138396719968 -0.006222243516107005 0
-0.0006418081137545378 -0.006352109666876795 0
-0.0006250880118441902 -0.005392330306585516 0
-0.0006268757223367189 -0.005635086551557356 0
-0.0004266376550494052 -0.005505747157605814 0
-0.0004357645767792959 -0.006491153257276016 0
-0.0002172662960250204 -0.006370411924939014 0
-0.0008316350615082315 -0.005751380624437754 0
-0.00112134593199441 -0.007763119208193267 0
-0.00137134593199441 -0.007763119208193267 0
-0.000214212682770967 -0.005624251701288824 0
-0.0002124249722784382 -0.005381495456316983 0
-0.0002124249722784382 -0.005131495456316982 0
-0.001001945466630244 -0.005223754692278316 0
-0.000998098634445603 -0.005018265344535039 0
-0.001217969014159279 -0.005099612481351407 0
-0.001287414531227466 -0.00687955907254034 0
-0.0002109790398715846 -0.007373404097364184 0
-0.0003867881183305297 -0.00300041795931301 0
-0.0001952882126156886 -0.003098401691051341 0
-0.0001914999057148412 -0.002902016268261665 0
-0.001810202486707993 -0.006519535712915294 0
-0.001810202486707993 -0.006291757935137515 0
-0.001807266195842536 -0.005159119811084726 0
-0.001807266195842536 -0.004931342033306948 0
-0.001804293093377802 -0.006063888888888883 0
-0.001804293093377802 -0.005836111111111105 0
-0.001807101809155622 -0.005609390338884487 0
-0.001807101809155622 -0.00538161256110671 0
-0.001809673937589409 -0.006975547610825117 0
-0.001809673937589409 -0.006747769833047338 0
-0.001213436689235145 -0.004285396990614358 0
-0.001028609047053791 -0.004409872829689369 0
-0.001014012634901972 -0.004198182529858497 0
-0.001383108242479123 -0.003952592906798325 0
-0.001187970461936883 -0.003853165241454171 0
-0.0005749349561900643 -0.005017347936810576 0
-0.0005913663862206414 -0.00480820931042505 0
-0.0007985065169471451 -0.004933268929076423 0
-0.00101453006447618 -0.004809126718149512 0
-0.0006239624245386048 -0.007788289519189166 0
-0.0008739624245386049 -0.007788289519189166 0
-0.001611394902533424 -0.005723279227773375 0
-0.001614495580085796 -0.006177869046248625 0
-0.001619876424297402 -0.006633972212629303 0
-0.001614368004998158 -0.005274065705524773 0
-0.001021485524182343 -0.004610608796568064 0
-0.0008220614698491696 -0.004523394335812202 0
-0.001004686459996158 -0.003968080900700745 0
-0.0008198588178148032 -0.004092556739775755 0
-0.001035210483413924 -0.006088233969440923 0
-0.001040780279200962 -0.006329385937209478 0
-0.001816374682769634 -0.007194116303984694 0
-0.001626048620359043 -0.007080775025920924 0
-0.001816374682769634 -0.007421894081762472 0
-0.00139416894124123 -0.004160828314907333 0
-0.001408765353393049 -0.004372518614738205 0
-0.001025015925050449 -0.005630184792876422 0
-0.001031324907427177 -0.005859895716777117 0
-0.001811669359268791 -0.004727774989782165 0
-0.001811669359268791 -0.004499997212004388 0
-0.0006440011500108572 -0.004628055470353835 0
-0.0006511246728823047 -0.004427319503475141 0
-0.0001838974127317803 -0.004696144159079597 0
-0.0001838974127317803 -0.004946144159079598 0
-0.0004204295892537765 -0.004712134478087988 0
-0.0001830127018922195 -0.007816987298107781 0
-0.0004330127018922195 -0.007816987298107781 0
-0.0001830127018922195 -0.00756698729810778 0
-0.0006300731803325857 -0.004218747572843212 0
-0.001418009732327581 -0.00540083014232072 0
-0.001418174119014496 -0.005178337392298737 0
-0.001240097507275413 -0.00643654683308851 0
-0.0014166459788625 -0.00584434994260789 0
-0.001419454694640319 -0.005617629170381271 0
-0.001587544122952809 -0.007837002657991147 0
-0.001837544122952809 -0.007837002657991147 0
-0.001228591346956142 -0.005967038137879591 0
-0.001223260808656657 -0.005521900857155235 0
-0.001606418161968358 -0.004446194403742201 0
-0.001426440948179438 -0.006300557241520326 0
-0.001420531554849247 -0.006072688195271695 0
-0.001837544122952809 -0.00760922488021337 0
-0.001023570962737712 -0.005413385764815871 0
-0.001434061532511961 -0.00654172768406544 0
-0.001479930168193132 -0.007190372294263779 0
-0.001437720614764043 -0.007412791067733517 0
-0.001433532983393377 -0.006769961804197486 0
-0.001473229423012907 -0.006971803601104202 0
-0.001425685909962273 -0.004570763079449226 0
-0.00141873045025611 -0.004769281001030676 0
-0.001221077641680801 -0.004695605212026679 0
-0.001618935555111328 -0.004848005911978006 0
-0.001458890054947218 -0.007600121866184415 0
-0.000803700583024036 -0.005332038627999504 0
-0.0005569751264308244 -0.007605276817296946 0
-0.0003414999057148411 -0.002652016268261667 0
-0.001414327286829855 -0.004972848044555458 0
-0.0003963223850102185 -0.005077639615396588 0
-0.0006034625157367222 -0.005202699234047961 0
-0.000393991741763804 -0.007440391395471964 0
-0.001653918805722442 -0.007486674517531398 0
-0.0001499999999999999 -0.002749999999999998 0
2 13 0 188
566
567
568
569
570
571
572
573
574
575
576
577
578
579
580
581
582
583
584
585
586
587
588
589
590
591
592
593
594
595
596
597
598
599
600
601
602
603
604
605
606
607
608
609
610
611
612
613
614
615
616
617
618
619
620
621
622
623
624
625
626
627
628
629
630
631
632
633
634
635
636
637
638
639
640
641
642
643
644
645
646
647
648
649
650
651
652
653
654
655
656
657
658
659
660
661
662
663
664
665
666
667
668
669
670
671
672
673
674
675
676
677
678
679
680
681
682
683
684
685
686
687
688
689
690
691
692
693
694
695
696
697
698
699
700
701
702
703
704
705
706
707
708
709
710
711
712
713
714
715
716
717
718
719
720
721
722
723
724
725
726
727
728
729
730
731
732
733
734
735
736
737
738
739
740
741
742
743
744
745
746
747
748
749
750
751
752
753
0.001615590512751559 -0.006861896314008676 0
0.001609393138109496 -0.005950000000000006 0
0.001548396984605054 -0.005100267922423113 0
0.001232758811471027 -0.004065247045012863 0
0.0004425082455747998 -0.006244681376133173 0
0.0004783610560920589 -0.005169223713510056 0
0.0004945952457225286 -0.007246770596941666 0
0.0007417146597273857 -0.003737839640481911 0
0.0007514893318683598 -0.004229017872175752 0
0.00125904004969422 -0.007567994220595897 0
0.001103676551081292 -0.004512335562058747 0
0.000673284040922149 -0.004677103730753968 0
0.001043937845749347 -0.004996663024515698 0
0.0008968334555896523 -0.005489563276679389 0
0.0004660345456673551 -0.005745243708800542 0
0.0008645901083859002 -0.005977221333889736 0
0.0008595155186045426 -0.006456909813703438 0
0.0004531113179512049 -0.006737664751585591 0
0.0008872458299777755 -0.006912772085325581 0
0.0015385908781756 -0.004380565035392975 0
0.001610293583547976 -0.005512805094525802 0
0.001612051796006368 -0.006405603247665471 0
0.0004361754050345593 -0.003268094641164841 0
0.0007679017813951387 -0.007625428425863061 0
0.001617814865016203 -0.007316666666666669 0
0.001248254726816112 -0.005737136502748881 0
0.001255928443384718 -0.006638239366993147 0
0.001241622288551189 -0.006194185044166779 0
0.0004273753299439758 -0.003990750698294579 0
0.00127068747149814 -0.007098122874964212 0
0.001269543319261628 -0.005367287164178577 0
0.0004009392564442657 -0.002840143686657943 0
0.0003579569841565559 -0.004360365546564647 0
0.001446920451922259 -0.00476018853110033 0
0.0003660254037844392 -0.00763397459621556 0
0.0002955932022048508 -0.004765320978163607 0
0.001675370982942085 -0.007685821066341403 0
0.001689545036961754 -0.004109274761400485 0
0.0003232880233550108 -0.003669198297464082 0
0.0009877499891696438 -0.007303831141425243 0
0.0007611494509207028 -0.005082943369012877 0
0.0008586109433357478 -0.004836883377634833 0
0.0005758225485071039 -0.004923163722132013 0
0.001492755665048929 -0.004570376783246653 0
0.001723460225961129 -0.004785649821105721 0
0.0017692954390878 -0.004595838073252045 0
0.0006875972558408555 -0.005329393495094723 0
0.0009703856506694994 -0.005243113150597544 0
0.0017692954390878 -0.004368060295474266 0
0.0004185573307394125 -0.003054119163911392 0
0.0002004696282221328 -0.00292007184332897 0
0.0002180877025172796 -0.003134047320582419 0
0.0005347300668155174 -0.00288638373939141 0
0.0005523481411106642 -0.00310035921664486 0
0.001497658718263656 -0.004930228226761721 0
0.001774198492302527 -0.004955689516767113 0
0.0007466019957978727 -0.003983428756328832 0
0.0009921240716696932 -0.004147132458594308 0
0.0009872367355992064 -0.003901543342747387 0
0.0004844386215634999 -0.004721212354458788 0
0.0003869771291484549 -0.004967272345836831 0
0.0009594076532589001 -0.003685231716303374 0
0.001204929729130721 -0.003848935418568851 0
0.001245429148835803 -0.004878425777808014 0
0.001296167415177201 -0.005048465473469405 0
0.001156740582505487 -0.005181975094347137 0
0.001408970151933341 -0.005233777543300845 0
0.0006517758064547864 -0.003295496997187111 0
0.0005889450323809725 -0.003502967140823376 0
0.0008045454338011995 -0.003530369496845646 0
0.001461151924216391 -0.004087260903206674 0
0.001628460622418319 -0.003970376942106819 0
0.001400067509672955 -0.003948363083913008 0
0.001614067957568677 -0.00424491989839673 0
0.001385674844823314 -0.004222906040202919 0
0.0002330172728336776 -0.005872621854400269 0
0.0002330172728336776 -0.005622621854400268 0
0.0006510118820896712 -0.006350795594918306 0
0.0008620528134952214 -0.006217065573796587 0
0.00065354917698035 -0.006110951355011454 0
0.000472197800879707 -0.005457233711155299 0
0.0006814340006285036 -0.005617403492739965 0
0.0006653123270266276 -0.005861232521345139 0
0.0004542713956210775 -0.005994962542466857 0
0.0002212541227874 -0.006122340688066584 0
0.000690920537850152 -0.007079771341133623 0
0.0006701785739644902 -0.006825218418455585 0
0.0004738532818368668 -0.006992217674263628 0
0.0002265556589756024 -0.006868832375792795 0
0.0002472976228612644 -0.007123385298470833 0
0.0002391805280460295 -0.005334611856755025 0
0.0005004696282221329 -0.002670071843328971 0
0.0002265556589756024 -0.006618832375792793 0
0.0002180877025172796 -0.003384047320582417 0
0.000379731714194785 -0.003468646469314462 0
0.0005325013415411982 -0.003703518968972997 0
0.0009275829414748262 -0.00437067671711725 0
0.00116821768127616 -0.004288791303535805 0
0.0007411726174460862 -0.007275300869183455 0
0.0009374979095737097 -0.007108301613375412 0
0.0008807117819877762 -0.005733392305284562 0
0.0004478097817630024 -0.006491173063859382 0
0.0002212541227874 -0.006372340688066584 0
0.00137952002484711 -0.007783997110297949 0
0.00112952002484711 -0.007783997110297949 0
0.001321133714628446 -0.004446450298725861 0
0.0002391805280460295 -0.005084611856755025 0
0.0006563134182778738 -0.006597287282644514 0
0.000178978492078278 -0.004430182773282319 0
0.000178978492078278 -0.004180182773282319 0
0.0002472976228612644 -0.007373385298470833 0
0.000873380674291159 -0.00668484094951451 0
0.001804696569054748 -0.005836111111111117 0
0.001804696569054748 -0.006063888888888895 0
0.00180779525637578 -0.006747614823671007 0
0.00180779525637578 -0.006975392601448784 0
0.001805146791773988 -0.005389735880596236 0
0.001805146791773988 -0.005617513658374015 0
0.001774198492302527 -0.005183467294544892 0
0.001806025898003184 -0.006291690512721627 0
0.001806025898003184 -0.006519468290499405 0
0.00107380719841532 -0.004754499293287222 0
0.0008884802960017207 -0.004594719646406358 0
0.0003926661570502659 -0.004175558122429613 0
0.0002136876649719879 -0.003995375349147285 0
0.0007123866863952544 -0.00445306080146486 0
0.001050568903577866 -0.006325547428935109 0
0.001053106198468545 -0.006085703189028258 0
0.001071587136681247 -0.006775505726159365 0
0.001057721980994631 -0.006547574590348293 0
0.0008839508906975692 -0.00781271421293153 0
0.0006339508906975692 -0.00781271421293153 0
0.001610722467057932 -0.006177801623832738 0
0.001609843360828736 -0.005731402547262904 0
0.001613821154378963 -0.006633749780837073 0
0.001579345284076515 -0.005306536508474458 0
0.0008778258852823913 -0.007464629783644152 0
0.0006312485135588336 -0.007436099511402364 0
0.00101347091554468 -0.007596711323229479 0
0.001616702688883881 -0.007089281490337673 0
0.001808907432508102 -0.00720277777777778 0
0.001808907432508102 -0.007430555555555557 0
0.001078966650737958 -0.007005447480144897 0
0.001263307957441429 -0.006868181120978679 0
0.00108318838742564 -0.005428425220428983 0
0.001248775365967954 -0.006416212205579964 0
0.0004330127018922195 -0.007816987298107781 0
0.0001830127018922197 -0.007816987298107781 0
0.0001830127018922197 -0.00756698729810778 0
0.001056422417601006 -0.005857178918319308 0
0.001072544091202882 -0.005613349889714135 0
0.0001477966011024254 -0.0048826604890818 0
0.001837685491471042 -0.007842910533170702 0
0.001587685491471042 -0.007842910533170702 0
0.001275298501501776 -0.004636262046579538 0
0.0005845449948356807 -0.003864295169388245 0
0.0005894323309061678 -0.004109884285235166 0
0.001837685491471042 -0.007615132755392925 0
0.001439918451404802 -0.005440046129352189 0
0.001244938507683651 -0.00596566077345783 0
0.0001616440116775054 -0.003834599148732036 0
0.0001616440116775054 -0.003584599148732037 0
0.001444251168257171 -0.007207394770815441 0
0.00126486376059618 -0.007333058547780055 0
0.001438427457355212 -0.007442330443631283 0
0.001429274155182044 -0.005624970798637342 0
0.001428823932462804 -0.005843568251374443 0
0.001433990119695543 -0.006521921307329309 0
0.001435759478068139 -0.006750067840500911 0
0.001425507713330343 -0.006072092522083392 0
0.001426837042278779 -0.006299894145916125 0
0.001443138992124849 -0.006980009594486444 0
0.001467205516318153 -0.00762690764346865 0
0.0005547231580124578 -0.0042946917093702 0
0.0005156205125393525 -0.004518734638659308 0
0.000566963592589789 -0.007629701511039311 0
0.0003504696282221329 -0.002670071843328971 0
0.001844772518480753 -0.004004637380700242 0
0.001844772518480877 -0.00423241515847802 0
0.0003753316766494933 -0.003829974497879331 0
0.0001477966011024254 -0.004632660489081799 0
0.0004303103247534839 -0.007440372596578614 0
0.00125889902303887 -0.005552211833463729 0
0.001646592923979144 -0.007501243866504036 0
0.001129218730333892 -0.007200977008194728 0
0.001123395019431932 -0.00743591268101057 0
0.0003267750931807033 -0.004562843262364127 0
0.00015 -0.002749999999999998 0
2 17 0 188
754
755
756
757
758
759
760
761
762
763
764
765
766
767
768
769
770
771
772
773
774
775
776
777
778
779
780
781
782
783
784
785
786
787
788
789
790
791
792
793
794
795
796
797
798
799
800
801
802
803
804
805
806
807
808
809
810
811
812
813
814
815
816
817
818
819
820
821
822
823
824
825
826
827
828
829
830
831
832
833
834
835
836
837
838
839
840
841
842
843
844
845
846
847
848
849
850
851
852
853
854
855
856
857
858
859
860
861
862
863
864
865
866
867
868
869
870
871
872
873
874
875
876
877
878
879
880
881
882
883
884
885
886
887
888
889
890
891
892
893
894
895
896
897
898
899
900
901
902
903
904
905
906
907
908
909
910
911
912
913
914
915
916
917
918
919
920
921
922
923
924
925
926
927
928
929
930
931
932
933
934
935
936
937
938
939
940
941
-0.00161554874952719 0.006861897445058049 0
-0.001609393138109497 0.005950000000000006 0
-0.001548396984605067 0.005100267922423128 0
-0.00123275881147106 0.004065247045012886 0
-0.0004425074563828047 0.006244682850923818 0
-0.0004783610560920742 0.005169223713510086 0
-0.0007547850212576078 0.007620238587824813 0
-0.0007417146597274019 0.003737839640481938 0
-0.0007514893318683872 0.004229017872175786 0
-0.001103676551081329 0.004512335562058773 0
-0.000673284040922179 0.004677103730754003 0
-0.001043937845749372 0.004996663024515728 0
-0.000896833455589654 0.005489563276679417 0
-0.0004660345456673431 0.00574524370880056 0
-0.0008645899768538979 0.005977221579688189 0
-0.0008594149424765433 0.00645674901500036 0
-0.0004531046887384981 0.006737677139826868 0
-0.0008755360213127338 0.006907727549481824 0
-0.001538590878175641 0.004380565035392999 0
-0.001255872493268108 0.007573834575530016 0
-0.001612049259367375 0.006405603316363804 0
-0.001610293583547979 0.005512805094525813 0
-0.0004361754050345642 0.003268094641164856 0
-0.0004725024787050594 0.007235392207586465 0
-0.001617814865016203 0.007316666666666669 0
-0.001248254704894111 0.005737136543715305 0
-0.00125781543692059 0.006633333333333337 0
-0.001241919576437002 0.006193340631350167 0
-0.0004273753299439884 0.003990750698294613 0
-0.001270196335979565 0.00709813617610484 0
-0.001269543314877236 0.005367287172371878 0
-0.0004009392564442672 0.002840143686657949 0
-0.0003579569841565736 0.004360365546564679 0
-0.001446920451922282 0.004760188531100348 0
-0.0003660254037844398 0.007633974596215561 0
-0.0002955932022048863 0.004765320978163658 0
-0.001674737471656862 0.007686989137328226 0
-0.001689545036961789 0.004109274761400497 0
-0.0003232880233550147 0.003669198297464108 0
-0.000963927701817663 0.007298848813088373 0
-0.0007611494509207232 0.005082943369012907 0
-0.0008586109433357756 0.004836883377634866 0
-0.0005758225485071266 0.004923163722132045 0
-0.001492755665048961 0.004570376783246673 0
-0.001723460225961141 0.004785649821105731 0
-0.001769295439087821 0.004595838073252056 0
-0.0006875972558408641 0.005329393495094751 0
-0.0009703856506695131 0.005243113150597572 0
-0.001769295439087821 0.004368060295474277 0
-0.0004185573307394156 0.003054119163911402 0
-0.0002004696282221336 0.002920071843328975 0
-0.000218087702517282 0.003134047320582429 0
-0.0005347300668155199 0.002886383739391418 0
-0.0005523481411106683 0.003100359216644872 0
-0.001497658718263674 0.004930228226761738 0
-0.001774198492302533 0.004955689516767121 0
-0.0007466019957978946 0.003983428756328861 0
-0.0009921240716697234 0.004147132458594336 0
-0.0009872367355992307 0.003901543342747412 0
-0.0004844386215635326 0.004721212354458831 0
-0.0003869771291484803 0.004967272345836872 0
-0.0009594076532589201 0.003685231716303396 0
-0.001204929729130749 0.00384893541856887 0
-0.001245429148835827 0.004878425777808038 0
-0.001296167415177219 0.005048465473469428 0
-0.001156740580313304 0.005181975098443803 0
-0.001408970149741152 0.005233777547397503 0
-0.0006517758064547951 0.003295496997187126 0
-0.0005889450323809831 0.003502967140823397 0
-0.000804545433801214 0.003530369496845667 0
-0.001461151924216424 0.004087260903206691 0
-0.001628460622418353 0.003970376942106831 0
-0.001400067509672989 0.003948363083913026 0
-0.001614067957568715 0.004244919898396747 0
-0.00138567484482335 0.004222906040202942 0
-0.0002330172728336715 0.005872621854400285 0
-0.0002330172728336715 0.005622621854400284 0
-0.000650961199429674 0.006350715932962088 0
-0.0008620024596652206 0.006216985297344274 0
-0.0006535487166183514 0.006110952215306003 0
-0.0004721978008797086 0.005457233711155323 0
-0.0006814340006284985 0.005617403492739988 0
-0.0006653122612606205 0.005861232644244374 0
-0.0004542710010250739 0.005994963279862189 0
-0.0002212537281914024 0.006122341425461914 0
-0.000226552344369249 0.006868838569913438 0
-0.000226552344369249 0.00661883856991344 0
-0.0002391805280460371 0.005334611856755047 0
-0.0005004696282221335 0.002670071843328974 0
-0.000218087702517282 0.003384047320582429 0
-0.0003797317141947894 0.003468646469314482 0
-0.0005325013415412083 0.003703518968973023 0
-0.0007182150902613612 0.007267120510337418 0
-0.0009197318615651983 0.007103288181285098 0
-0.0006740192500088966 0.007071559878534145 0
-0.0009275829414748582 0.004370676717117279 0
-0.001168217681276194 0.004288791303535829 0
-0.000880711716221776 0.005733392428183802 0
-0.0004478060725606513 0.006491179995375343 0
-0.0002212537281914024 0.006372341425461914 0
-0.001127936246634054 0.007786917287765008 0
-0.001005328757262858 0.007597036581677414 0
-0.0008773925106288038 0.007810119293912406 0
-0.0006562598156075207 0.006597213077413614 0
-0.001321133714628485 0.004446450298725885 0
-0.001377936246634054 0.007786917287765008 0
-0.0002391805280460371 0.005084611856755046 0
-0.0004628035837217787 0.006986534673706667 0
-0.0006643203550256159 0.006822702344654347 0
-0.0001789784920782867 0.004430182773282341 0
-0.0001789784920782867 0.004180182773282341 0
-0.0006273925106288038 0.007810119293912406 0
-0.0008674754818946385 0.006682238282241092 0
-0.0008593563615376354 0.007459543700456593 0
-0.0006136437499813336 0.007427815397705639 0
-0.0002362512393525297 0.007117696103793236 0
-0.0002362512393525297 0.007367696103793234 0
-0.001807774374763595 0.006747615389195693 0
-0.001807774374763595 0.006975393166973471 0
-0.001804696569054748 0.005836111111111117 0
-0.001804696569054748 0.006063888888888895 0
-0.001805146791773989 0.005389735880596242 0
-0.001805146791773989 0.00561751365837402 0
-0.001774198492302533 0.005183467294544899 0
-0.001806024629683688 0.006291690547070794 0
-0.001806024629683688 0.006519468324848571 0
-0.001073807198415351 0.00475449929328725 0
-0.0008884802960017541 0.004594719646406388 0
-0.000392666157050281 0.004175558122429646 0
-0.0002136876649719942 0.003995375349147308 0
-0.000712386686395283 0.004453060801464894 0
-0.001050667259456773 0.006325044823175262 0
-0.00105325477664545 0.006085281105519177 0
-0.001610721198738436 0.006177801658181905 0
-0.001613799004447283 0.006633750380710927 0
-0.001609843360828738 0.005731402547262909 0
-0.001579345284076523 0.005306536508474471 0
-0.001066675729116662 0.006770530441407581 0
-0.001058615189698566 0.006545041174166849 0
-0.001616681807271697 0.007089282055862359 0
-0.001808907432508102 0.00720277777777778 0
-0.001808907432508102 0.007430555555555557 0
-0.001072866178646149 0.007002931862793332 0
-0.001264005886450077 0.006865734754719089 0
-0.001083188385233445 0.005428425224525647 0
-0.001249867506678796 0.006413336982341752 0
-0.0001830127018922199 0.007816987298107781 0
-0.0001830127018922199 0.007566987298107782 0
-0.0004330127018922198 0.007816987298107781 0
-0.001056422340874004 0.005857179061701747 0
-0.001072544080241882 0.00561334991019736 0
-0.0001477966011024432 0.004882660489081832 0
-0.001837368735828431 0.007843494568664114 0
-0.001587368735828431 0.007843494568664114 0
-0.001275298501501806 0.00463626204657956 0
-0.0005845449948356952 0.003864295169388275 0
-0.0005894323309061878 0.004109884285235199 0
-0.001837368735828431 0.007615716790886336 0
-0.001439918449212608 0.005440046133448846 0
-0.001245087140665556 0.005965238587532735 0
-0.0001616440116775073 0.003834599148732056 0
-0.0001616440116775073 0.003584599148732055 0
-0.001429274144221045 0.00562497081912056 0
-0.001428823921501804 0.005843568271857655 0
-0.001444005600497884 0.007207401421385754 0
-0.001263034414623836 0.007335985375817427 0
-0.001436843679142156 0.007445250621098342 0
-0.001434932348143982 0.006519468324848571 0
-0.00143668209322389 0.006747615389195693 0
-0.00142565635727325 0.006071670315675086 0
-0.001426984417902189 0.006299471973856986 0
-0.001442872542753378 0.006980016810581444 0
-0.0004192639412447496 0.007434683401901013 0
-0.001465304982462485 0.00763041185642912 0
-0.0005547231580124804 0.004294691709370232 0
-0.0005156205125393762 0.004518734638659341 0
-0.0003504696282221336 0.002670071843328974 0
-0.001844772518480792 0.004004637380700248 0
-0.001844772518480894 0.004232415158478026 0
-0.0003753316766495015 0.00382997449787936 0
-0.0001477966011024432 0.004632660489081831 0
-0.0005604052125210237 0.007627106592020188 0
-0.001109900097542885 0.007436341694309194 0
-0.001258899009885674 0.005552211858043592 0
-0.001646276168336533 0.007501827901997447 0
-0.001117062018898614 0.007198492494596606 0
-0.0003267750931807299 0.004562843262364168 0
-0.00015 0.002750000000000001 0
2 21 0 188
942
943
944
945
946
947
948
949
950
951
952
953
954
955
956
957
958
959
960
961
962
963
964
965
966
967
968
969
970
971
972
973
974
975
976
977
978
979
980
981
982
983
984
985
986
987
988
989
990
991
992
993
994
995
996
997
998
999
1000
1001
1002
1003
1004
1005
1006
1007
1008
1009
1010
1011
1012
1013
1014
1015
1016
1017
1018
1019
1020
1021
1022
1023
1024
1025
1026
1027
1028
1029
1030
1031
1032
1033
1034
1035
1036
1037
1038
1039
1040
1041
1042
1043
1044
1045
1046
1047
1048
1049
1050
1051
1052
1053
1054
1055
1056
1057
1058
1059
1060
1061
1062
1063
1064
1065
1066
1067
1068
1069
1070
1071
1072
1073
1074
1075
1076
1077
1078
1079
1080
1081
1082
1083
1084
1085
1086
1087
1088
1089
1090
1091
1092
1093
1094
1095
1096
1097
1098
1099
1100
1101
1102
1103
1104
1105
1106
1107
1108
1109
1110
1111
1112
1113
1114
1115
1116
1117
1118
1119
1120
1121
1122
1123
1124
1125
1126
1127
1128
1129
0.001619176422529955 0.006862121221832472 0
0.001608586186755605 0.005949999999999994 0
0.001614532391685076 0.005051572955502796 0
0.001198840277083492 0.004073706690783593 0
0.0004345325920500406 0.006240823849878043 0
0.0004248499445568717 0.005262990912633996 0
0.0007541887165864229 0.007619294896063366 0
0.0008105326429091039 0.003862455110618166 0
0.0008291849927207629 0.004322658368933702 0
0.001228033101387087 0.004497087290445319 0
0.0008149379469777708 0.004724130302691041 0
0.0004284253655419332 0.005748503402577669 0
0.0008253260791314951 0.005521669700537082 0
0.0008379440438849582 0.005981091548338461 0
0.0008513780547256154 0.006454928410881154 0
0.0004554767222584788 0.006735771757752781 0
0.0008738280646235016 0.006905900731826932 0
0.001255338147443633 0.007572884600384009 0
0.0004245616548968176 0.003621264610758616 0
0.00162037639797451 0.006405723907342445 0
0.001614203618311244 0.005496558455546758 0
0.0004725102457132672 0.007233960021815459 0
0.00158949760539926 0.004247949939031145 0
0.001616856034423949 0.007316666666666666 0
0.00047306435304404 0.004531980638016952 0
0.0004309613679445992 0.004114836776753157 0
0.00122181584634392 0.00530510182909472 0
0.001224705770969394 0.005738699885215798 0
0.001232854563580407 0.00619396284751853 0
0.001247500981157166 0.006647620349803556 0
0.00127146611307255 0.007097373818948346 0
0.001623338718537616 0.004644438868453235 0
0.0003829998114296857 0.002804032536523352 0
0.0003905764252313964 0.003196803382102732 0
0.001214122181974665 0.004894123133608192 0
0.0003660254037844396 0.007633974596215562 0
0.001674438836373516 0.007686799142299024 0
0.000782075086916521 0.005142407555462042 0
0.0009675912257408358 0.007296869907803575 0
0.0003677948254635223 0.004892288318159312 0
0.0004277615114207083 0.003868050693755887 0
0.0002154806839722996 0.00405741838837658 0
0.0002122808274484089 0.00381063230537931 0
0.0002122808274484089 0.003560632305379309 0
0.000407569040064107 0.003409033996430674 0
0.0006289763165532414 0.003259851367656106 0
0.0006459689313859519 0.003472081981984048 0
0.0005295486512090924 0.003064713587113834 0
0.0009938166448498341 0.003747539451371556 0
0.0008389544253920951 0.003592677231913823 0
0.0006175471489029607 0.003741859860688391 0
0.00179474880269963 0.004073974969515573 0
0.001578436906637189 0.004039714530922188 0
0.00179474880269963 0.004301752747293349 0
0.0006207470054268515 0.003988645943685661 0
0.0002154806839722996 0.00430741838837658 0
0.0004520128604943196 0.004323408707385054 0
0.00023653217652202 0.004515990319008479 0
0.0001952882126156982 0.003348401691051367 0
0.0002277383611292395 0.006617885878876396 0
0.0002277383611292395 0.006867885878876394 0
0.000525760344308237 0.002868328164324144 0
0.0004914999057148428 0.002652016268261676 0
0.0009207096451821687 0.007101385319815253 0
0.0007200507357270514 0.007265414964809517 0
0.0006731691551683844 0.007069930376821195 0
0.0006331847047134458 0.005864797475458065 0
0.0006362383179674994 0.006110957699108252 0
0.0004314789787959869 0.005994663626227857 0
0.0002142126827709666 0.00587425170128884 0
0.0002172662960250203 0.006120411924939026 0
0.0008446610493052868 0.006218009979609807 0
0.000642955323387828 0.006347876130379599 0
0.0004450046571542598 0.006488297803815412 0
0.0002172662960250203 0.006370411924939028 0
0.0006250880118441834 0.005392330306585539 0
0.0006268757223367141 0.005635086551557376 0
0.0004266376550494024 0.005505747157605832 0
0.0004639934839858731 0.00698486588978412 0
0.0006646523934409902 0.006820836244789857 0
0.0008316350615082266 0.005751380624437771 0
0.0002142126827709666 0.005624251701288839 0
0.0002124249722784358 0.005381495456317002 0
0.001004763432015028 0.007596089748223688 0
0.001127669073721817 0.007786442300192004 0
0.0008770943582932116 0.007809647448031683 0
0.0002124249722784358 0.005131495456317 0
0.001377669073721817 0.007786442300192004 0
0.001001945466630221 0.005223754692278381 0
0.0009980986344455931 0.005018265344535117 0
0.001217969014159293 0.005099612481351456 0
0.0006270943582932114 0.007809647448031683 0
0.0002362551228566336 0.007116980010907733 0
0.0008626030596745585 0.006680414571354043 0
0.0006534273884920472 0.006595350084316968 0
0.0002362551228566336 0.007366980010907732 0
0.000386788118330541 0.003000417959313042 0
0.0001952882126156982 0.003098401691051366 0
0.0001914999057148429 0.002902016268261676 0
0.001810188198987255 0.006519528620337887 0
0.001810188198987255 0.006291750842560108 0
0.001809588211264978 0.006975505055360679 0
0.001809588211264978 0.0067477272775829 0
0.001807266195842538 0.005159119811084729 0
0.001807266195842538 0.004931342033306952 0
0.001807101809155622 0.005609390338884487 0
0.001807101809155622 0.00538161256110671 0
0.001804293093377803 0.006063888888888883 0
0.001804293093377803 0.005836111111111105 0
0.0008608899711636294 0.00745808240193347 0
0.000613349481149845 0.007426627458939413 0
0.00121343668923529 0.004285396990614455 0
0.001028609047053925 0.00440987282968951 0
0.001014012634902128 0.004198182529858647 0
0.001383108242479305 0.003952592906798411 0
0.001187970461937028 0.003853165241454269 0
0.0005749349561900216 0.005017347936810677 0
0.0005913663862206465 0.004808209310425176 0
0.0007985065169471459 0.004933268929076541 0
0.001014530064476218 0.004809126718149617 0
0.001611394902533425 0.005723279227773376 0
0.001614481292365058 0.00617786195367122 0
0.001619776410252233 0.006633922564587459 0
0.00161436800499816 0.005274065705524776 0
0.001021485524182429 0.00461060879656818 0
0.0008220614698492668 0.004523394335812371 0
0.001004686459996298 0.003968080900700879 0
0.0008198588178149333 0.004092556739775934 0
0.001035399303732682 0.006087527197928495 0
0.001042116309153011 0.006324445629199842 0
0.001049439517941391 0.006551274380342355 0
0.001060664522890334 0.006776760540815243 0
0.001808428017211974 0.007202777777777777 0
0.001618016228476952 0.007089393944249569 0
0.001808428017211974 0.007430555555555555 0
0.001394168941241376 0.004160828314907369 0
0.001408765353393173 0.004372518614738232 0
0.001025015925050445 0.00563018479287644 0
0.001031324907427176 0.005859895716777129 0
0.001811669359268808 0.004727774989782172 0
0.001811669359268808 0.004499997212004394 0
0.0006440011500109053 0.004628055470353996 0
0.0006511246728824014 0.004427319503475327 0
0.0001838974127317611 0.004696144159079658 0
0.0001838974127317611 0.004946144159079659 0
0.001259483547114858 0.006872497084375951 0
0.001072647088848026 0.007001637275387639 0
0.0004204295892537811 0.004712134478088132 0
0.0001830127018922198 0.007566987298107783 0
0.0001830127018922198 0.007816987298107781 0
0.0004330127018922198 0.007816987298107781 0
0.000630073180332681 0.004218747572843429 0
0.001418009732327582 0.005400830142320739 0
0.001418174119014498 0.005178337392298758 0
0.001240177772368787 0.006420791598661043 0
0.0014166459788625 0.005844349942607896 0
0.001419454694640319 0.005617629170381278 0
0.001587219418186758 0.007843399571149512 0
0.001837219418186758 0.007843399571149512 0
0.001228780167274901 0.005966331366367164 0
0.001223260808656657 0.005521900857155259 0
0.001606418161968438 0.00444619440374219 0
0.001426615480777459 0.006299843377430487 0
0.001420720375168006 0.006071981423759263 0
0.001837219418186758 0.007615621793371734 0
0.001023570962737708 0.005413385764815901 0
0.001433938689565839 0.006526672128573 0
0.001433338701843561 0.006754870785818014 0
0.001263402130258092 0.007335129209666178 0
0.00144416107374825 0.007207020242807506 0
0.001436097090933791 0.007444775633525337 0
0.001425685909962352 0.004570763079449277 0
0.001445321267801253 0.006979747520390409 0
0.0004192678247488534 0.007433967309015511 0
0.001418730450256141 0.004769281001030714 0
0.001221077641680876 0.004695605212026756 0
0.001618935555111346 0.004848005911978016 0
0.001464888491908575 0.007629841871341516 0
0.0008037005830240081 0.005332038627999562 0
0.0003414999057148426 0.002652016268261676 0
0.001414327286829871 0.004972848044555494 0
0.000396322385010197 0.005077639615396654 0
0.0006034625157366963 0.005202699234048019 0
0.0005601070601854313 0.007626634746139465 0
0.001111464686592234 0.007434877254093792 0
0.001645647435398733 0.007501732904482845 0
0.001119528669406693 0.00719712186337596 0
0.0001499999999999999 0.002750000000000001 0
$EndNodes
$Elements
10 534 1 534
1 33 8 4
1 10 154 157 
2 154 155 158 
3 155 156 159 
4 156 3 160 
1 36 8 4
5 3 187 190 
6 187 188 191 
7 188 189 192 
8 189 12 193 
1 39 8 4
9 4 220 223 
10 220 221 224 
11 221 222 225 
12 222 14 226 
1 40 8 4
13 15 227 230 
14 227 228 231 
15 228 229 232 
16 229 4 233 
2 1 9 42
17 1 264 119 270 271 121 
18 119 264 7 271 272 120 
19 116 261 2 273 274 117 
20 8 261 116 275 273 118 
21 17 264 1 276 270 26 
22 105 261 8 277 275 115 
23 2 261 25 274 278 35 
24 7 264 97 272 279 106 
25 262 266 19 280 281 282 
26 25 260 24 283 284 34 
27 98 266 99 285 286 108 
28 104 260 105 287 288 114 
29 22 265 21 289 290 31 
30 99 266 262 286 280 291 
31 101 265 102 292 293 111 
32 265 268 102 294 295 293 
33 18 263 17 296 297 27 
34 22 268 265 298 294 289 
35 23 269 268 299 300 301 
36 19 266 18 281 302 28 
37 20 262 19 303 282 29 
38 21 267 20 304 305 30 
39 20 267 262 305 306 303 
40 265 267 21 307 304 290 
41 260 269 24 308 309 284 
42 97 263 98 310 311 107 
43 99 262 100 291 312 109 
44 100 267 101 313 314 110 
45 262 267 100 306 313 312 
46 101 267 265 314 307 292 
47 104 269 260 315 308 287 
48 23 268 22 301 298 32 
49 24 269 23 309 299 33 
50 103 269 104 316 315 113 
51 18 266 263 302 317 296 
52 102 268 103 295 318 112 
53 268 269 103 300 316 318 
54 263 266 98 317 285 311 
55 263 264 17 319 276 297 
56 260 261 105 320 277 288 
57 25 261 260 278 320 283 
58 97 264 263 279 319 310 
2 5 9 42
59 2 324 122 331 332 124 
60 122 324 6 332 333 123 
61 125 322 1 334 335 126 
62 5 322 125 336 334 127 
63 25 324 2 337 331 35 
64 1 322 17 335 338 26 
65 86 322 5 339 336 96 
66 6 324 78 333 340 87 
67 329 330 21 341 342 343 
68 18 325 19 344 345 28 
69 24 323 25 346 347 34 
70 82 330 329 348 341 349 
71 21 330 22 342 350 31 
72 79 326 80 351 352 89 
73 326 328 80 353 354 352 
74 85 321 86 355 356 95 
75 82 329 83 349 357 92 
76 24 326 323 358 359 346 
77 84 327 325 360 361 362 
78 17 321 18 363 364 27 
79 327 329 20 365 366 367 
80 23 328 326 368 353 369 
81 19 327 20 370 367 29 
82 325 327 19 361 370 345 
83 22 328 23 371 368 32 
84 22 330 328 350 372 371 
85 23 326 24 369 358 33 
86 78 323 79 373 374 88 
87 80 328 81 354 375 90 
88 83 327 84 376 360 93 
89 20 329 21 366 343 30 
90 81 330 82 377 348 91 
91 83 329 327 357 365 376 
92 84 325 85 362 378 94 
93 85 325 321 378 379 355 
94 321 325 18 379 344 364 
95 328 330 81 372 377 375 
96 323 326 79 359 351 374 
97 17 322 321 338 380 363 
98 321 322 86 380 339 356 
99 323 324 25 381 337 347 
100 78 324 323 340 381 373 
2 9 9 107
101 399 412 391 421 422 423 
102 391 403 399 424 425 423 
103 400 407 43 426 427 428 
104 44 400 43 429 428 54 
105 400 415 147 430 431 432 
106 147 415 148 431 433 152 
107 146 389 147 434 435 151 
108 389 400 147 436 432 435 
109 9 405 145 437 438 149 
110 128 405 9 439 437 136 
111 399 403 388 425 440 441 
112 389 407 400 442 426 436 
113 397 411 399 443 444 445 
114 43 407 42 427 446 53 
115 42 407 406 446 447 448 
116 397 399 398 445 449 450 
117 44 415 400 451 430 429 
118 37 398 388 452 453 454 
119 38 398 37 455 452 48 
120 148 414 7 456 457 153 
121 398 399 388 449 441 453 
122 394 396 386 458 459 460 
123 39 394 386 461 460 462 
124 396 397 386 463 464 459 
125 387 395 394 465 466 467 
126 386 398 38 468 455 469 
127 395 396 394 470 458 466 
128 155 391 154 471 472 158 
129 387 394 40 467 473 474 
130 41 387 40 475 474 51 
131 39 386 38 462 469 49 
132 408 419 416 476 477 478 
133 411 412 399 479 421 444 
134 40 394 39 473 461 50 
135 37 388 36 454 480 47 
136 397 398 386 450 468 464 
137 414 415 45 481 482 483 
138 133 401 132 484 485 141 
139 130 384 129 486 487 138 
140 132 383 131 488 489 140 
141 131 402 130 490 491 139 
142 134 382 133 492 493 142 
143 385 392 390 494 495 496 
144 145 385 146 497 498 150 
145 419 420 393 499 500 501 
146 416 419 393 477 501 502 
147 156 403 155 503 504 159 
148 383 402 131 505 490 489 
149 132 401 383 485 506 488 
150 382 401 133 507 484 493 
151 130 402 384 491 508 486 
152 392 393 390 509 510 495 
153 385 389 146 511 434 498 
154 45 415 44 482 451 55 
155 155 403 391 504 424 471 
156 385 390 389 496 512 511 
157 396 410 397 513 514 463 
158 134 404 382 515 516 492 
159 135 404 134 517 515 143 
160 385 405 392 518 519 494 
161 395 409 396 520 521 470 
162 145 405 385 438 518 497 
163 129 413 128 522 523 137 
164 393 406 390 524 525 510 
165 42 420 41 526 527 52 
166 393 420 406 500 528 524 
167 3 417 156 529 530 160 
168 36 417 3 531 529 46 
169 390 407 389 532 442 512 
170 402 408 384 533 534 508 
171 410 411 397 535 443 514 
172 406 407 390 447 532 525 
173 383 409 402 536 537 505 
174 406 420 42 528 526 448 
175 154 418 10 538 539 157 
176 409 410 396 540 513 521 
177 402 409 408 537 541 533 
178 128 413 405 523 542 439 
179 401 410 383 543 544 506 
180 383 410 409 544 540 536 
181 10 418 135 539 545 144 
182 408 409 395 541 520 546 
183 401 411 410 547 535 543 
184 391 412 404 422 548 549 
185 382 411 401 550 547 507 
186 382 412 411 551 479 550 
187 405 413 392 542 552 519 
188 413 416 392 553 554 552 
189 384 413 129 555 522 487 
190 392 416 393 554 502 509 
191 404 412 382 548 551 516 
192 391 418 154 556 538 472 
193 395 419 408 557 476 546 
194 156 417 403 530 558 503 
195 7 414 119 457 559 120 
196 384 416 413 560 553 555 
197 387 420 419 561 499 562 
198 387 419 395 562 557 465 
199 388 417 36 563 531 480 
200 41 420 387 527 561 475 
201 403 417 388 558 563 440 
202 404 418 391 564 556 549 
203 408 416 384 478 560 534 
204 135 418 404 545 564 517 
205 148 415 414 433 481 456 
206 1 119 45 121 565 56 
207 119 414 45 559 483 565 
2 13 9 109
208 571 578 577 606 607 608 
209 585 599 176 609 610 611 
210 571 579 578 612 613 606 
211 177 585 176 614 611 185 
212 588 597 45 615 616 617 
213 161 597 588 618 615 619 
214 176 599 568 610 620 621 
215 573 574 569 622 623 624 
216 577 601 571 625 626 608 
217 163 573 569 627 624 628 
218 568 599 578 620 629 630 
219 578 596 568 631 632 630 
220 162 588 573 633 634 635 
221 569 603 164 636 637 638 
222 585 603 569 639 636 640 
223 39 580 40 641 642 50 
224 570 582 581 643 644 645 
225 571 580 579 646 647 612 
226 570 581 580 645 648 649 
227 570 580 39 649 641 650 
228 572 584 583 651 652 653 
229 572 583 37 653 654 655 
230 40 580 571 642 646 656 
231 5 597 161 657 618 165 
232 37 583 38 654 658 48 
233 44 588 45 659 617 55 
234 588 604 573 660 661 634 
235 574 576 569 662 663 623 
236 572 605 584 664 665 651 
237 580 581 579 648 666 647 
238 38 583 570 658 667 668 
239 189 575 188 669 670 192 
240 576 585 569 671 640 663 
241 38 570 39 668 650 49 
242 40 571 41 656 672 51 
243 570 583 582 667 673 643 
244 42 598 43 674 675 53 
245 36 572 37 676 655 47 
246 583 584 582 652 677 673 
247 174 567 173 678 679 182 
248 172 566 171 680 681 180 
249 175 586 174 682 683 183 
250 176 568 175 621 684 184 
251 173 587 172 685 686 181 
252 577 578 576 607 687 688 
253 43 598 594 675 689 690 
254 163 569 164 628 638 168 
255 574 577 576 691 688 662 
256 582 593 581 692 693 644 
257 584 592 582 694 695 677 
258 188 589 187 696 697 191 
259 567 587 173 698 685 679 
260 174 586 567 683 699 678 
261 172 587 566 686 700 680 
262 568 586 175 701 682 684 
263 589 605 572 702 664 703 
264 162 573 163 635 627 167 
265 575 589 188 704 696 670 
266 161 588 162 619 633 166 
267 566 590 171 705 706 681 
268 171 590 170 706 707 179 
269 584 595 592 708 709 694 
270 579 596 578 710 631 613 
271 592 593 582 711 692 695 
272 187 600 3 712 713 190 
273 3 600 36 713 714 46 
274 581 591 579 715 716 666 
275 571 601 41 626 717 672 
276 12 602 189 718 719 193 
277 578 599 576 629 720 687 
278 573 594 574 721 722 622 
279 170 602 12 723 718 178 
280 568 596 586 632 724 701 
281 581 593 591 693 725 715 
282 43 604 44 726 727 54 
283 590 595 575 728 729 730 
284 586 591 567 731 732 699 
285 587 592 566 733 734 700 
286 567 593 587 735 736 698 
287 591 593 567 725 735 732 
288 592 595 566 709 737 734 
289 587 593 592 736 711 733 
290 566 595 590 737 728 705 
291 189 602 575 719 738 669 
292 574 598 577 739 740 691 
293 589 600 187 741 712 697 
294 125 597 5 742 657 127 
295 11 603 177 743 744 186 
296 594 604 43 745 726 690 
297 177 603 585 744 639 614 
298 41 601 42 717 746 52 
299 36 600 572 714 747 676 
300 576 599 585 720 609 671 
301 586 596 591 724 748 731 
302 164 603 11 637 743 169 
303 572 600 589 747 741 703 
304 575 602 590 738 749 730 
305 573 604 594 661 745 721 
306 594 598 574 689 739 722 
307 591 596 579 748 710 716 
308 44 604 588 727 660 659 
309 595 605 575 750 751 729 
310 575 605 589 751 702 704 
311 590 602 170 749 723 707 
312 42 601 598 746 752 674 
313 598 601 577 752 625 740 
314 584 605 595 665 750 708 
315 1 45 125 56 753 126 
316 45 597 125 616 742 753 
2 17 9 109
317 759 765 764 794 795 796 
318 772 787 209 797 798 799 
319 759 766 765 800 801 794 
320 210 772 209 802 799 218 
321 776 785 57 803 804 805 
322 194 785 776 806 803 807 
323 209 787 756 798 808 809 
324 761 762 757 810 811 812 
325 764 789 759 813 814 796 
326 196 761 757 815 812 816 
327 756 787 765 808 817 818 
328 765 784 756 819 820 818 
329 195 776 761 821 822 823 
330 757 791 197 824 825 826 
331 772 791 757 827 824 828 
332 63 767 62 829 830 73 
333 758 769 768 831 832 833 
334 759 767 766 834 835 800 
335 758 768 767 833 836 837 
336 758 767 63 837 829 838 
337 65 770 64 839 840 75 
338 62 767 759 830 834 841 
339 8 785 194 842 806 198 
340 58 776 57 843 805 68 
341 776 792 761 844 845 822 
342 777 793 771 846 847 848 
343 762 763 757 849 850 811 
344 767 768 766 836 851 835 
345 64 770 758 840 852 853 
346 221 773 760 854 855 856 
347 758 770 769 852 857 831 
348 763 772 757 858 828 850 
349 222 773 221 859 854 225 
350 64 758 63 853 838 74 
351 62 759 61 841 860 72 
352 770 777 771 861 848 862 
353 60 786 59 863 864 70 
354 221 760 220 856 865 224 
355 770 771 769 862 866 857 
356 760 793 777 867 846 868 
357 65 777 770 869 861 839 
358 66 777 65 870 869 76 
359 205 754 204 871 872 213 
360 207 755 206 873 874 215 
361 208 775 207 875 876 216 
362 209 756 208 809 877 217 
363 206 774 205 878 879 214 
364 764 765 763 795 880 881 
365 59 786 782 864 882 883 
366 196 757 197 816 826 201 
367 762 764 763 884 881 849 
368 769 781 768 885 886 832 
369 755 774 206 887 878 874 
370 205 774 754 879 888 871 
371 207 775 755 876 889 873 
372 756 775 208 890 875 877 
373 771 780 769 891 892 866 
374 195 761 196 823 815 200 
375 194 776 195 807 821 199 
376 754 778 204 893 894 872 
377 204 778 203 894 895 212 
378 771 783 780 896 897 891 
379 766 784 765 898 819 801 
380 780 781 769 899 885 892 
381 4 788 66 900 901 77 
382 220 788 4 902 900 223 
383 768 779 766 903 904 851 
384 759 789 61 814 905 860 
385 14 790 222 906 907 226 
386 765 787 763 817 908 880 
387 761 782 762 909 910 810 
388 203 790 14 911 906 211 
389 756 784 775 820 912 890 
390 768 781 779 886 913 903 
391 59 792 58 914 915 69 
392 775 779 755 916 917 889 
393 778 783 773 918 919 920 
394 774 780 754 921 922 888 
395 755 781 774 923 924 887 
396 779 781 755 913 923 917 
397 780 783 754 897 925 922 
398 774 781 780 924 899 921 
399 66 788 777 901 926 870 
400 754 783 778 925 918 893 
401 222 790 773 907 927 859 
402 762 786 764 928 929 884 
403 116 785 8 930 842 118 
404 13 791 210 931 932 219 
405 782 792 59 933 914 883 
406 210 791 772 932 827 802 
407 61 789 60 905 934 71 
408 760 788 220 935 902 865 
409 773 793 760 936 867 855 
410 763 787 772 908 797 858 
411 777 788 760 926 935 868 
412 775 784 779 912 937 916 
413 197 791 13 825 931 202 
414 773 790 778 927 938 920 
415 761 792 782 845 933 909 
416 782 786 762 882 928 910 
417 779 784 766 937 898 904 
418 58 792 776 915 844 843 
419 783 793 773 939 936 919 
420 778 790 203 938 911 895 
421 60 789 786 934 940 863 
422 786 789 764 940 813 929 
423 771 793 783 847 939 896 
424 116 2 57 117 67 941 
425 57 785 116 804 930 941 
2 21 9 109
426 960 967 59 982 983 984 
427 58 960 59 985 984 69 
428 960 975 253 986 987 988 
429 253 975 254 987 989 258 
430 252 949 253 990 991 257 
431 949 960 253 992 988 991 
432 16 964 251 993 994 255 
433 234 964 16 995 993 242 
434 949 967 960 996 982 992 
435 59 967 60 983 997 70 
436 60 967 966 997 998 999 
437 58 975 960 1000 986 985 
438 64 957 65 1001 1002 75 
439 254 974 6 1003 1004 259 
440 958 980 963 1005 1006 1007 
441 953 955 946 1008 1009 1010 
442 63 953 946 1011 1010 1012 
443 955 956 946 1013 1014 1009 
444 946 957 64 1015 1001 1016 
445 947 954 953 1017 1018 1019 
446 958 963 957 1007 1020 1021 
447 954 955 953 1022 1008 1018 
448 947 953 62 1019 1023 1024 
449 948 959 228 1025 1026 1027 
450 63 946 64 1012 1016 74 
451 61 947 62 1028 1024 72 
452 228 959 227 1026 1029 231 
453 968 979 976 1030 1031 1032 
454 62 953 63 1023 1011 73 
455 229 948 228 1033 1027 232 
456 957 963 65 1020 1034 1002 
457 956 958 957 1035 1021 1036 
458 956 957 946 1036 1015 1014 
459 65 963 66 1034 1037 76 
460 974 975 57 1038 1039 1040 
461 239 961 238 1041 1042 247 
462 240 942 239 1043 1044 248 
463 236 944 235 1045 1046 244 
464 237 962 236 1047 1048 245 
465 238 943 237 1049 1050 246 
466 963 980 948 1006 1051 1052 
467 945 951 950 1053 1054 1055 
468 251 945 252 1056 1057 256 
469 979 981 952 1058 1059 1060 
470 976 979 952 1031 1060 1061 
471 943 962 237 1062 1047 1050 
472 238 961 943 1042 1063 1049 
473 942 961 239 1064 1041 1044 
474 236 962 944 1048 1065 1045 
475 951 952 950 1066 1067 1054 
476 945 949 252 1068 990 1057 
477 57 975 58 1039 1000 68 
478 945 950 949 1055 1069 1068 
479 955 970 956 1070 1071 1013 
480 956 971 958 1072 1073 1035 
481 240 965 942 1074 1075 1043 
482 241 965 240 1076 1074 249 
483 945 964 951 1077 1078 1053 
484 954 969 955 1079 1080 1022 
485 251 964 945 994 1077 1056 
486 235 973 234 1081 1082 243 
487 952 966 950 1083 1084 1067 
488 60 981 61 1085 1086 71 
489 971 972 958 1087 1088 1073 
490 952 981 966 1059 1089 1083 
491 66 977 4 1090 1091 77 
492 4 977 229 1091 1092 233 
493 950 967 949 1093 996 1069 
494 962 968 944 1094 1095 1065 
495 970 971 956 1096 1072 1071 
496 966 967 950 998 1093 1084 
497 943 969 962 1097 1098 1062 
498 966 981 60 1089 1085 999 
499 227 978 15 1099 1100 230 
500 969 970 955 1101 1070 1080 
501 962 969 968 1098 1102 1094 
502 234 973 964 1082 1103 995 
503 961 970 943 1104 1105 1063 
504 943 970 969 1105 1101 1097 
505 15 978 241 1100 1106 250 
506 968 969 954 1102 1079 1107 
507 961 971 970 1108 1096 1104 
508 942 971 961 1109 1108 1064 
509 959 972 965 1110 1111 1112 
510 964 973 951 1103 1113 1078 
511 942 972 971 1114 1087 1109 
512 963 977 66 1115 1090 1037 
513 973 976 951 1116 1117 1113 
514 944 973 235 1118 1081 1046 
515 951 976 952 1117 1061 1066 
516 965 972 942 1111 1114 1075 
517 959 978 227 1119 1099 1029 
518 954 979 968 1120 1030 1107 
519 6 974 122 1004 1121 123 
520 944 976 973 1122 1116 1118 
521 947 981 979 1123 1058 1124 
522 947 979 954 1124 1120 1017 
523 229 977 948 1092 1125 1033 
524 948 980 959 1051 1126 1025 
525 948 977 963 1125 1115 1052 
526 61 981 947 1086 1123 1028 
527 965 978 959 1127 1119 1112 
528 968 976 944 1032 1122 1095 
529 959 980 972 1126 1128 1110 
530 241 978 965 1106 1127 1076 
531 254 975 974 989 1038 1003 
532 972 980 958 1128 1005 1088 
533 122 57 2 1129 67 124 
534 122 974 57 1121 1040 1129 
$EndElements
